# xmcd CD database file
#
# Track frame offsets:
#	150
#	17945
#	74108
#	120820
#	147229
#	170525
#	180528
#	214637
#	232880
#	264546
#	267621
#	293987
#	312334
#
# Disc length: 4179 seconds
#
# Revision: 1
# Processed by: cddbd v1.5.2PL0 Copyright (c) Steve Scherf et al.
# Submitted via: CDex 1.51
#
DISCID=c510510d
DTITLE=Polysoft - Tribute To Soft Machine
DYEAR=2002
DGENRE=Jazz
TTITLE0=Polysoft - Facelift (Intro)
TTITLE1=Polysoft - Facelift
TTITLE2=Polysoft - Chloe And The Pirates
TTITLE3=Polysoft - Gesolreut
TTITLE4=Polysoft - Pig
TTITLE5=Polysoft - Dedicated To You But You Weren
TTITLE6=Polysoft - As If
TTITLE7=Polysoft - Kings And Queens
TTITLE8=Polysoft - Slightly All The Time
TTITLE9=Polysoft - Noisette 1
TTITLE10=Polysoft - Backwards
TTITLE11=Polysoft - Noisette 2
TTITLE12=Data Track
EXTD=YEAR: 2002
EXTT0=
EXTT1=
EXTT2=
EXTT3=
EXTT4=
EXTT5=
EXTT6=
EXTT7=
EXTT8=
EXTT9=
EXTT10=
EXTT11=
EXTT12=
PLAYORDER=
